<svg xmlns="http://www.w3.org/2000/svg" version="1.0" viewBox="0 0 1080 1080"><path fill="#fff" d="M551.39 1077.2c132.8-.85 225.93-37.98 293.2-113.9 23.52-26.52 56.04-125.1 73.6-126.23 20.57-1.34 90.3-62.04 97.07-124.17 9.84-90.45-22.16-136.55-38.45-142.15-12.12-4.17-.36-185.22-24.25-237.93-11.88-26.2-70.55-149.9-81.58-149.15-19.43 1.32-98.1-98.7-118.18-97.73-14.74.7-99.8-65.8-118.22-62.46C611.52 27.67 558.8-2.05 541.53 1 522.48 4.36 466 45.83 450.88 42.8c-18.65-3.75-75.77 68.87-102.5 64.42-33.6-5.6-87.33 86.52-102.62 84.57-55.92-7.14-114.6 181.98-132.24 238.6-14.01 44.98 13.37 139.8 1.09 144.74-24.39 9.8-50.43 61.67-53.25 107.27-3.65 59.15 32.14 159.11 92.76 158.66 14.85-.12 23.56 72.06 86.2 135.48 59.88 60.62 171.82 101.56 311.07 100.67z"/><path fill="#ffd5ad" stroke="#000" stroke-width="16.92" d="M783.57 353.27c74.09 64.98 100.62 77.1 94.43 222.58-1.56 36.54-.06 64.74-1.48 89.65-.76 13.35 1.47-40.37 4.23-43.13 8.62-8.64 50.04-32.25 70.8-17.83 18.84 13.09 28.8 35.1 29.06 71.9.25 36.8-11.78 64.97-22.87 81.72-10.93 16.52-47.47 37.3-60.26 39.53-7.68 1.34-16.22-1.8-16.76-8.26-.98-11.54.91-2.31-2.55 11.76-4.57 18.61-23.77 72.66-48.55 107.43-24.78 34.76-69.21 71.12-94.13 86.46-29 17.85-109 40.83-186 40.57-90.56-.3-139.15-14.31-209.12-47.86-44.07-21.65-54.73-28.59-74.44-47.37-19.7-18.78-46.35-63.78-54.47-86.28-8.12-22.5-7.26-22.23-8.15-34-1.25-16.36-2.38-40.97-1.87-35.43.91 9.8-6.92 16.15-16.42 15.57-19.26-1.19-40.36-11.5-55.66-28.08-13.12-14.21-26.9-42.6-26.9-71.53s4.03-62.8 22.67-77.86c15.18-12.26 34.78-15.72 46.35-12.68 9.4 2.46 25.74 10.74 27.92 22.67 1.83 10.04 2.08 23.53 1 46.13-.71 15.11 1.33-32.45 2.07-57.19.45-14.65-5.12-19.95-4.7-52.26.43-32.32 11.31-83.32 20.02-96.1 97.86-158.47 429.32-232.41 565.78-120.11z"/><path fill="#d2943c" d="M597.71 1016.15c2.45 14.81 90.12-5.94 104.84-13.41 36.88-18.71 42.36-20.6 73.14-48.05 30.32-27.03 61.04-58.54 86.84-132.64 3.87-11.12 8.9-27.7 8.56-36.75-.18-5 4.03-8.58 7.68-8.7 7.15-.26 9 5.94 9.01 6.34.06 2.43-.13 6.52 1.66 6.88 6.32 1.26 8.1.95 25.9-8.33 58.19-30.3 60.13-97.53 53.5-131.46-3.92-20.02-18.46-44.58-41.69-40.18-24.73 4.68-32.93 13.64-40.1 18.33-.97 8.3-2.9 32.75-3.37 42.96-.1 2.54-4.25 5.83-8.64 5.57-5.91-.44-7.83-5.57-7.88-8.7-.22-16.33 2.14-52.97 1.15-76.76-1.27-30.35 15.97-100.38 6.46-108.64-7.5-6.5-119.66-103.03-163.61-116.22-25.44-7.63-276.65-33.06-206.52-34.81 71.84-1.8-181.14 84.96-188.74 91.1-14.58 11.78-92.54 52.68-108.22 75.7-15.2 22.31 22.97 1.44 117.74-37.1 53.22-21.63 108.65-52.91 112.9-56.63 10.13-8.88 57.36-13.7 80.93-21.78 7.03-2.4 31.6-7.24 34.47-14.12 1.75-4.2 62.78 44.52 126.96 41.75 2.07-.09 13.7-3.26 18.12 2.22 13.5 16.72 110.75 69.08 147.44 79.06 34.48 9.4 5.31 63.58 10.13 186.48.5 12.9 32.9 27.88 50.45-25.87 1.1-3.37 62.08-18.09 20.58 59.43-13.19 24.63-23.8 86.31-47.84 47.57-13.42-21.63-37.25 73.1-59.36 114.39-25.13 46.9-74.36 80.03-102 98.8-38.63 26.22-124.04 22.1-120.49 43.57zM144.7 671.9c1.92-1.95 5.24-5.5 9.73-5.44 1.36-.05 7.16 1.74 9 1.85 1.47.19-11.88 21.4-1.5 71.62-6.66-10.58-7.36-11.46-9.42-15.44-1.14-2.18-9.8-15.5-9.64-38.25.03-4 .04-12.54 1.83-14.35z" opacity=".25"/><path d="M597.34 896.44c-28.93 10.15-47.53 12-84.58 8.8-3.56-.34-4.23.5-4.74 4.73-.85 8.3 4.9 12.35 20.8 14.55 21.5 2.88 53.97-1.7 81.21-11.5 12.18-4.4 13.54-5.42 14.04-9.65.68-4.9-5.07-13.02-8.8-12.68-1 .17-9.13 2.7-17.93 5.75zM533.48 695.52c-3.21 3.73-5.41 19.63-3.9 28.26 1.36 6.93 12.36 19.62 17.1 19.62 2.03 0 2.53-.85 1.69-3.05-6.6-15.22-6.77-16.07-3.56-29.77 3.39-13.87 2.88-15.4-4.06-17.09-3.04-.67-5.24-.17-7.27 2.03zM394.5 637.98c-14.73 4.23-22.68 17.94-26.06 44.67-3.72 28.42 5.41 60.4 20.64 72.57 13.2 10.66 31.13 4.9 38.9-12.35 5.08-11.16 5.93-42.46 2.04-66.31-4.23-24.87-8.46-32.32-21.66-37.9-6.93-2.87-6.76-2.87-13.87-.68zM692.93 641.5c-7.1 4.39-8.46 6.42-12.7 18.94-3.04 9.13-3.71 14.55-3.54 31.97.17 26.23 2.87 36.55 12.18 46.7 10.82 11.67 27.57 13.36 36.7 3.89 1.87-2.2 6.1-9.3 9.14-15.74 5.42-11.5 5.59-12.52 5.59-33.83 0-23.18-2.2-32.82-9.65-43.65-7.44-10.49-27.06-14.72-37.72-8.29zM382.5 542.86c-15.57 3.39-42.13 17.26-43.49 22.5-1.18 4.9 4.23 12.86 9.3 13.54 1.87.34 10.16-2.88 18.45-6.94 16.07-8.12 27.91-11.33 41.28-11.33 10.15 0 17.08 2.7 30.28 12 8.46 5.93 10.49 6.77 12.69 4.91 7.95-6.6-2.88-21.99-22.5-31.97-9.65-4.9-30.8-6.09-46.02-2.7zM678.55 543.2c-2.37.34-10.32 3.9-17.77 7.78-11.33 6.1-13.7 7.95-14.04 12.01-.84 6.1 3.72 12.86 8.63 12.86 2.2 0 9.98-3.21 17.43-6.93 13.02-6.77 13.7-6.94 26.9-6.1 9.64.51 18.94 2.54 31.8 7.11 9.98 3.38 19.28 5.75 20.64 5.25 3.55-1.36 3.04-8.3-.85-13.37-3.89-4.9-23.34-12.86-41.78-17.09-11.5-2.53-21.32-3.04-30.96-1.52zM917.86 640.39c-13.03 6.94-15.57 11.84-9.99 19.8 3.39 4.9 6.43 4.73 16.92-.85 7.95-4.06 9.14-4.4 14.21-2.2 5.42 2.2 5.42 2.37 4.74 11.67-1.18 15.06-11.67 34-31.97 57.35-6.26 7.1-6.43 14.04-.51 18.78 5.75 4.57 8.46 4.4 11 0 1.01-2.03 7.6-11.17 14.54-20.3 13.88-18.27 20.81-33.16 22-47.2 2.03-21.66-8.3-36.2-28.26-39.76-4.4-.67-7.78 0-12.68 2.7zM145.38 648.65c-12.01 2.03-17.77 12.01-17.77 31.13 0 18.77 2.54 29.1 11 46.18 13.53 27.4 29.6 40.94 27.91 23.69-.16-1.87-3.72-8.63-7.95-15.06-11-16.41-15.73-30.8-15.73-47.88 0-13.02.34-14.04 4.57-17.42 3.21-2.54 5.92-3.39 8.96-2.54 14.55 3.72 17.1 2.54 13.7-6.43-2.87-7.27-15.56-13.36-24.7-11.67z"/><path fill="#ffbd58" stroke="#000" stroke-width="16.92" d="M562.92 69.12c7.29 5.11 25.06 11.46 38 17.38 12.95 5.92 18.53 8.2 32.32 8.8 13.79.6 15.65-.5 19.45-4.57 3.8-4.06 3.58-8.13 7.62-5.24 2.06 1.47 44.07 33.4 51.42 41.44 7.36 8.04 31.12 26.93 35.08 29.9 11.45 8.64 20.67 4.34 19.9-11.29-.26-5.35 2.78-3.64 16.59 12.02 19.57 22.18 30.87 41.75 41.95 63.6 6.76 12.97 8.57 47.65 14.45 56.33 15.8 23.67 11.12-47.4 29.2-11.33 12.79 25.53 40.4 78.49 52.61 120.63 10.64 36.7 14.17 75.38 13.97 112.27-.22 40.98-4.94 73.03-9.17 101.46-14.1 1.74-20.89 4.86-48.51 23.63.31-61.56-3.52-99.82-12.68-121.62-24.37-34.8-69.82-54.27-105.9-81.3-18.16-13.6-50.11-31.93-57.32-39.92-7.77-8.62-21.04-27.2-22.46-43.98-1.06-12.48 2.02 26.89 15.05 40.7 5.06 5.35-33.42-5.25-46.29-6.99-13.96-1.88-26.78-5.64-39.08-9.8-21.77-7.55-58.16-25.36-48.97-34.98 10.9-11.42 19.37-35.57 20.55-51.65 1.19-16.07-5.48-34.77-2.25-20.38 2.5 11.12.07 29.5-1.74 38.98-7.2 37.64-46.6 57.53-76.54 64.3-28.88 5.2-59.49 24.26-58.27 9.75.7-8.24-23.52-40.58-17.8-32.81 4.3 5.83 18.75 27.44 12.66 36.6-43.24 28.09-100.12 46.24-139.16 76.47-44.92 34.77-63.36 32.4-87.54 82.27-9.91 20.45-5.5 78.82-9.1 97.51-6.04-10.44-30.1-18.29-39.81-18.58-13.14-60.41-7.21-133.7-.28-179.56 3.86-25.57 16.07-40.85 25.89-76.38 9.8-35.52 27.29-77.23 37.92-94.73 10.7-17.61 10.46-10.09 9.48-2.9-1.1 8.2 4.16 14.53 7.94 12.42 12.32-6.89 31.43-20.36 44.33-37.44a937.65 937.65 0 0 1 28.42-36.2c5.75-6.85 13.11-16.5 16.41-21.49 3.3-4.99 8.28-13.13 9.34-15.8 3.6-9.08 6.45 9.3 9.27 13.6 7.53 11.48 22.26 1.81 26.05-1.18 9.74-7.7 65.71-65.28 72.24-70.38 14.82-11.57 10.58-8.6 14.72-1 3.1 5.7 11.16 5.06 19.28 2.02 8.13-3.05 23.1-13.45 43.82-28.25 34.67-25.57 11.02-20.5 36.94-2.33z"/><path fill="#ffd28e" d="M163.75 477.9c-3.41 41.78-2.08 88.22 4.44 123.11 10.18 2.48 18.03 5.93 25.88 9.34-.01-19.31.1-64.19 6.48-79.62 5.96-12.8 7.83-16.76 17.3-31.07-18.4-5.74-31.25-11.16-54.1-21.77zM872.6 498.34c14.49-7.02 41.42-15.55 54.24-20.63-.83 73.8-2.79 76.25-7.93 115.5-7.97.61-22.2 8.28-32.62 15.1-.06-10.43-.55-51.02-5.44-80.4-2.03-10.08-5-21.47-8.25-29.57z" opacity=".5"/><path fill="#cc8100" d="M708.86 376.08c-16.38-17.86-26.16-40.37-13.81-46.52 6.93-3.46 20.2 42.02 45.64 47.3 32.72 6.78 102.05 60.92 84.65 76.12-4.2 3.66-44.33-26.68-57.86-36.49-13.01-9.43-54.5-35.92-58.62-40.4zM585.23 341.77c-6.12-3.45-11.35-5.83-17.1-11.61 4.2-5.22 3.36-3.8 7.68-11.41 32.19 22.24 89.11 33.6 97.7 31.06 1.85 7.43 1.52 7.28 5.72 18.98-7.23-2.06-45.32-8.34-60.13-13.23-11.52-3.82-27.57-10.23-33.87-13.79zM569.93 279.52c.77 26-19.72 57.08-65.2 67.83-26.56 6.28-37.6 11.85-54.62 16.3-1.2-4.35-1.46-4.81-3.85-9.55 11.32-7.24 27.88-18.77 53.63-23.9 59.58-11.9 57.7-91.35 66.8-82.7 7.78 7.39 2.96 28.09 3.24 32.02zM370.75 390.62c-7.8-14.64 41.92-24.35 52.51-41.98 3.16 5.48 6.18 11.42 6.48 16.85-4.68 2.87-54.74 33.09-58.99 25.13z" opacity=".25"/><path fill="#cc8100" d="M546.38 65.88c11.46 11.93 23.52 17.01 44.9 25.45 20.79 10.27 32.54 12.63 44.15 12.4 19.33 1.23 19.98-5.17 24.26-8.12 26.02 19.7 33.9 26.59 46.61 37.83 18.2 16.07 39.14 37.48 54.2 36.03 5.67-.36 10.26-6.16 12.64-10.55 20.96 23.43 46.72 60.2 48.73 80.46 5.18 27.68 9.57 52.3 23.8 51.47 10.5-.62 13.03-10.68 15.73-20.7 8.88 18.16 31.94 63.07 42.02 90.75-22.38-12.25-39.92-48.96-52.32-43.61-49.74 21.44-54.57-125.81-90.24-119.58-20.88 3.65-92.26-79.95-103.03-73.9-35.55 19.98-80.64-19.21-104.3-27.55-16.4-5.78-56 29.59-78.71 26.95-13.26-1.54-94.66 82.05-110.43 78.52-34.32-7.7-83.54 97.5-115.94 88.67-21.62-5.9-56.62 79.67-58.78 81.79 6.62-31.06 27.52-82.72 38.85-103.57 6.56 11.14 16.59 8.01 28.84-.64 19.45-13.73 42.76-42.2 53.45-55.6 16.07-20.17 21.37-25.06 30.59-40.07 4.41 8.1 12.28 13.7 23.36 11.4 12-2.5 23.43-14.55 33.4-23.98 14.91-13.95 44.74-46.42 58.07-56.59 14.34 16.55 35.73 2.34 55.42-11a430.6 430.6 0 0 0 34.73-26.26z" class="UnoptimicedTransforms" opacity=".25"/><path fill="#d2943c" d="M542.75 723.78c2.86 20.17 24.67 39.8 26.56-2.6 1.69-37.64-20.15-21.07-22.65-19.73-1 6.95-3.37 11.92-3.9 22.33z" opacity=".25"/><path fill="#ffd28e" d="M715.27 355.86c-11.37-16.55-21.33-27.51-11.26-32.84 13.7-7.26 27.98 35.52 53.42 40.8 32.72 6.78 80.1 41.05 68.28 56.28-5.42 6.98-43.66-24.23-57.35-31.73-33.3-18.25-35.23-6.51-53.09-32.5zM575.8 318.84c2.94-5.31 4.14-7.06 7.5-16.6 16.6 9.09 57.01 26.47 88.5 28.69-2.3 4.4-.14 12.76 1.69 19.08-7.36 1.07-32.75-3.68-53.37-10.42-21.47-7.02-37.56-16.26-44.33-20.75zM506.06 328.45c-26.44 6.4-37.45 11.21-59.78 25.6-2.66-4.88-2.9-4.97-6-9.54 8.35-5.9 23.71-22.73 52.5-29.7 59.04-14.3 38.14-83.35 58.86-74.22 19.34 8.53-4.69 77.98-45.58 87.86zM366.06 377.64c-5.22-8.88 19.33-15.92 25.93-24.13 21-26.11 26.67-12.62 31.26-4.9-12.52 17.48-55.67 31.61-57.19 29.03z" opacity=".5"/><path d="M168.44 519.39c0 1.35 2.88 3.72 6.43 5.07 3.38 1.35 7.95 3.38 10.15 4.4 4.23 2.2 7.78.17 5.75-3.21-1.18-1.87-17.42-8.97-20.64-8.97-1.01 0-1.69 1.18-1.69 2.7zM167.09 550.68c.67 2.03 13.7 9.65 17.08 9.82.68.16 1.19-1.36 1.19-3.22 0-3.55-4.4-6.09-14.21-7.95-3.73-.85-4.74-.5-4.06 1.35zM166.75 578.26c0 2.37 17.08 14.55 20.47 14.55 4.57 0-.17-6.26-8.63-11.34-10.32-6.26-11.84-6.6-11.84-3.21zM900.48 505.29c-7.78 3.89-10.15 7.78-6.26 9.98 2.7 1.7 23.19-9.35 22.68-12.4-.85-3.89-7.8-2.15-16.42 2.42zM900.48 540.3c-6.94 4.07-7.1 4.24-4.74 7.96 1.36 2.2 2.71 2.03 9.3-1.7 4.58-2.53 12.28-7.65 12.28-9.35 0-4.06-9.06-1.47-16.84 3.1zM901.16 571.94c-7.45 5.25-8.8 7.95-4.74 9.48 3.38 1.35 22.97-10.32 21.79-13.2-1.36-3.72-9.6-1.7-17.05 3.72z"/></svg>